# xmcd
#
# Track frame offsets: 
#        150
#        19972
#        34392
#        54407
#        70799
#        86886
#        103050
#        114798
#        128400
#        140192
#        153888
#        167148
#        181697
#        194833
#        209327
#        225512
#        245336
#        261898
#        279455
#        301195
#
# Disc length: 4126 seconds
#
# Revision: 0
# Processed by: cddbd v1.5.2PL0 Copyright (c) Steve Scherf et al.
# Submitted via: ExactAudioCopyFreeDBPlugin 1.0
#
DISCID=17101c14
DTITLE=Nitty Gritty Dirt Band - Will The Circle Be Unbroken II
DYEAR=1989
DGENRE=Country
TTITLE0=Life's Railway To Heaven
TTITLE1=Grandpa Was A Carpenter
TTITLE2=When I Get My Rewards
TTITLE3=Don't You Hear Jerusalem Moan
TTITLE4=Little Mountain Church House
TTITLE5=And So It Goes
TTITLE6=When It's Gone
TTITLE7=Mary Danced With Soldiers
TTITLE8=Riding Alone
TTITLE9=I'm Sittin' On Top Of The World
TTITLE10=Lovin' On The Side
TTITLE11=Lost River
TTITLE12=Bayou Jubilee
TTITLE13=Blues Berry Hill
TTITLE14=Turn Of The Century
TTITLE15=One Step Over The Line
TTITLE16=You Ain't Going Nowhere
TTITLE17=The Valley Road
TTITLE18=Will The Circle Be Unbroken
TTITLE19=Amazing Grace
EXTD=
EXTT0=
EXTT1=
EXTT2=
EXTT3=
EXTT4=
EXTT5=
EXTT6=
EXTT7=
EXTT8=
EXTT9=
EXTT10=
EXTT11=
EXTT12=
EXTT13=
EXTT14=
EXTT15=
EXTT16=
EXTT17=
EXTT18=
EXTT19=
PLAYORDER=
